<svg width="39" height="40" viewBox="0 0 39 40" fill="none" xmlns="http://www.w3.org/2000/svg">
<g id="clarity:building-line" clip-path="url(#clip0_1_138)">
<path id="Vector" d="M33.5833 9.18213H24.9167V11.3488H33.5833V34.0988H24.9167V36.2655H35.75V11.3488C35.75 10.7742 35.5217 10.2231 35.1154 9.81673C34.7091 9.4104 34.158 9.18213 33.5833 9.18213Z" fill="#444444"/>
<path id="Vector_2" d="M21.5367 3.76562H6.63001C6.0209 3.76563 5.43673 4.00759 5.00602 4.4383C4.57531 4.86901 4.33334 5.45318 4.33334 6.06229V36.2656H23.8333V6.06229C23.8333 5.45318 23.5914 4.86901 23.1607 4.4383C22.73 4.00759 22.1458 3.76563 21.5367 3.76562ZM21.6667 34.099H18.4167V30.849H9.75001V34.099H6.50001V6.06229C6.50001 6.04522 6.50337 6.02832 6.50991 6.01254C6.51644 5.99677 6.52601 5.98244 6.53809 5.97037C6.55016 5.9583 6.56449 5.94872 6.58026 5.94219C6.59603 5.93565 6.61294 5.93229 6.63001 5.93229H21.5367C21.5537 5.93229 21.5707 5.93565 21.5864 5.94219C21.6022 5.94872 21.6165 5.9583 21.6286 5.97037C21.6407 5.98244 21.6502 5.99677 21.6568 6.01254C21.6633 6.02832 21.6667 6.04522 21.6667 6.06229V34.099Z" fill="#444444"/>
<path id="Vector_3" d="M8.66666 9.18213H10.8333V11.3488H8.66666V9.18213Z" fill="#444444"/>
<path id="Vector_4" d="M13 9.18213H15.1667V11.3488H13V9.18213Z" fill="#444444"/>
<path id="Vector_5" d="M17.3333 9.18213H19.5V11.3488H17.3333V9.18213Z" fill="#444444"/>
<path id="Vector_6" d="M8.66666 14.5991H10.8333V16.7658H8.66666V14.5991Z" fill="#444444"/>
<path id="Vector_7" d="M13 14.5991H15.1667V16.7658H13V14.5991Z" fill="#444444"/>
<path id="Vector_8" d="M17.3333 14.5991H19.5V16.7658H17.3333V14.5991Z" fill="#444444"/>
<path id="Vector_9" d="M8.66666 20.0156H10.8333V22.1823H8.66666V20.0156Z" fill="#444444"/>
<path id="Vector_10" d="M13 20.0156H15.1667V22.1823H13V20.0156Z" fill="#444444"/>
<path id="Vector_11" d="M17.3333 20.0156H19.5V22.1823H17.3333V20.0156Z" fill="#444444"/>
<path id="Vector_12" d="M8.66666 25.4321H10.8333V27.5988H8.66666V25.4321Z" fill="#444444"/>
<path id="Vector_13" d="M13 25.4321H15.1667V27.5988H13V25.4321Z" fill="#444444"/>
<path id="Vector_14" d="M17.3333 25.4321H19.5V27.5988H17.3333V25.4321Z" fill="#444444"/>
<path id="Vector_15" d="M24.9167 14.5991H27.0833V16.7658H24.9167V14.5991Z" fill="#444444"/>
<path id="Vector_16" d="M29.25 14.5991H31.4167V16.7658H29.25V14.5991Z" fill="#444444"/>
<path id="Vector_17" d="M24.9167 20.0156H27.0833V22.1823H24.9167V20.0156Z" fill="#444444"/>
<path id="Vector_18" d="M29.25 20.0156H31.4167V22.1823H29.25V20.0156Z" fill="#444444"/>
<path id="Vector_19" d="M24.9167 25.4321H27.0833V27.5988H24.9167V25.4321Z" fill="#444444"/>
<path id="Vector_20" d="M29.25 25.4321H31.4167V27.5988H29.25V25.4321Z" fill="#444444"/>
</g>
<defs>
<clipPath id="clip0_1_138">
<rect width="39" height="39" fill="white" transform="translate(0 0.515625)"/>
</clipPath>
</defs>
</svg>
