<svg width="12" height="10" viewBox="0 0 12 10" fill="none" xmlns="http://www.w3.org/2000/svg">
<g id="Frame" clip-path="url(#clip0_2423_72)">
<path id="Vector" d="M8.10901 8.76801C8.10901 8.52794 8.01364 8.29769 7.84388 8.12793C7.67412 7.95817 7.44388 7.8628 7.2038 7.8628H5.39338C5.1533 7.8628 4.92305 7.95817 4.75329 8.12793C4.58353 8.29769 4.48816 8.52794 4.48816 8.76801C4.48816 9.00809 4.58353 9.23833 4.75329 9.4081C4.92305 9.57786 5.1533 9.67323 5.39338 9.67323H7.2038C7.44388 9.67323 7.67412 9.57786 7.84388 9.4081C8.01364 9.23833 8.10901 9.00809 8.10901 8.76801ZM1.77252 2.43152H10.8247C11.0647 2.43152 11.295 2.33615 11.4647 2.16639C11.6345 1.99663 11.7299 1.76638 11.7299 1.52631C11.7299 1.28623 11.6345 1.05598 11.4647 0.886225C11.295 0.716464 11.0647 0.621094 10.8247 0.621094H1.77252C1.53245 0.621094 1.3022 0.716464 1.13244 0.886225C0.96268 1.05598 0.86731 1.28623 0.86731 1.52631C0.86731 1.76638 0.96268 1.99663 1.13244 2.16639C1.3022 2.33615 1.53245 2.43152 1.77252 2.43152ZM9.91944 5.14716C9.91944 4.90708 9.82407 4.67684 9.65431 4.50708C9.48455 4.33732 9.25431 4.24195 9.01423 4.24195H3.58295C3.34287 4.24195 3.11263 4.33732 2.94287 4.50708C2.77311 4.67684 2.67774 4.90708 2.67774 5.14716C2.67774 5.38724 2.77311 5.61748 2.94287 5.78724C3.11263 5.957 3.34287 6.05237 3.58295 6.05237H9.01423C9.25431 6.05237 9.48455 5.957 9.65431 5.78724C9.82407 5.61748 9.91944 5.38724 9.91944 5.14716Z" fill="#0654BA"/>
</g>
<defs>
<clipPath id="clip0_2423_72">
<rect width="10.8626" height="9.05213" fill="white" transform="translate(0.86731 0.322266)"/>
</clipPath>
</defs>
</svg>
