<svg width="26" height="25" viewBox="0 0 26 25" fill="none" xmlns="http://www.w3.org/2000/svg">
<g id="Frame 18" filter="url(#filter0_d_2423_307)">
<rect x="4.18628" y="3.70605" width="18.0098" height="18.0098" rx="9.0049" fill="white" shape-rendering="crispEdges"/>
<g id="Group">
<path id="Vector" d="M11.3127 7.02393C10.4337 7.02393 9.70987 7.83364 9.70987 8.81687C9.70987 9.8001 10.4337 10.6098 11.3127 10.6098C12.2088 10.6098 12.9154 9.8001 12.9154 8.81687C12.9154 7.83364 12.1916 7.02393 11.3127 7.02393Z" fill="url(#paint0_linear_2423_307)"/>
<path id="Vector_2" d="M14.0184 13.3472C13.4497 12.9038 13.0533 12.1712 13.0188 11.3422C12.7948 11.2072 12.5363 11.1108 12.2605 11.0337L11.2954 11.9012L10.3303 11.053C9.26177 11.3229 8.50346 12.0748 8.50346 13.2122V13.7906C8.31389 13.9063 8.15878 14.0219 8.0209 14.1569C7.69345 14.4461 7.50388 14.7931 7.50388 15.1787C7.50388 16.3933 9.34794 17.1259 11.3644 17.3186V16.7403C9.34794 16.5475 8.0209 15.8149 8.0209 15.1594C8.0209 14.3882 9.8305 13.54 12.4329 13.54C12.7776 13.54 13.105 13.5592 13.4152 13.5785C13.5876 13.5014 13.7944 13.4243 14.0184 13.3472Z" fill="url(#paint1_linear_2423_307)"/>
<path id="Vector_3" d="M10.2958 14.6005C10.2958 14.9283 10.9507 15.1982 11.7435 15.1982C11.8125 15.1982 11.8814 15.1982 11.9676 15.1982C12.1399 14.7933 12.3812 14.4463 12.7259 14.1571C12.4674 14.0607 12.1227 14.0029 11.7607 14.0029C10.9335 13.9836 10.2958 14.2728 10.2958 14.6005Z" fill="url(#paint2_linear_2423_307)"/>
<path id="Vector_4" d="M15.3282 13.2317C16.3278 13.2317 17.1378 12.3256 17.1378 11.2074C17.1378 10.0892 16.3278 9.18311 15.3282 9.18311C14.3287 9.18311 13.5186 10.0892 13.5186 11.2074C13.5186 12.3256 14.3287 13.2317 15.3282 13.2317Z" fill="url(#paint3_linear_2423_307)"/>
<path id="Vector_5" d="M18.4649 16.0852C18.327 14.6007 16.9655 13.7524 15.3282 13.7524C13.6048 13.7524 12.1744 14.6586 12.1744 16.3551C12.002 16.4129 11.8986 16.5865 11.8986 16.7792V18.3987H12.3812V16.8564C12.588 16.8756 13.2774 16.8949 14.1908 16.8949C15.3972 16.8949 16.9827 16.8371 18.4132 16.625V18.1673H18.8785V16.5286C18.8785 16.3937 18.8268 16.278 18.7406 16.1816C18.6717 16.1238 18.5683 16.0852 18.4649 16.0852Z" fill="url(#paint4_linear_2423_307)"/>
</g>
</g>
<defs>
<filter id="filter0_d_2423_307" x="0.91177" y="0.431545" width="24.5588" height="24.5588" filterUnits="userSpaceOnUse" color-interpolation-filters="sRGB">
<feFlood flood-opacity="0" result="BackgroundImageFix"/>
<feColorMatrix in="SourceAlpha" type="matrix" values="0 0 0 0 0 0 0 0 0 0 0 0 0 0 0 0 0 0 127 0" result="hardAlpha"/>
<feOffset/>
<feGaussianBlur stdDeviation="1.63725"/>
<feComposite in2="hardAlpha" operator="out"/>
<feColorMatrix type="matrix" values="0 0 0 0 0 0 0 0 0 0 0 0 0 0 0 0 0 0 0.25 0"/>
<feBlend mode="normal" in2="BackgroundImageFix" result="effect1_dropShadow_2423_307"/>
<feBlend mode="normal" in="SourceGraphic" in2="effect1_dropShadow_2423_307" result="shape"/>
</filter>
<linearGradient id="paint0_linear_2423_307" x1="12.9154" y1="7.02393" x2="9.21839" y2="7.63466" gradientUnits="userSpaceOnUse">
<stop stop-color="#1DE8B7"/>
<stop offset="1" stop-color="#1DC5E7"/>
</linearGradient>
<linearGradient id="paint1_linear_2423_307" x1="14.0184" y1="11.0337" x2="6.57318" y2="12.4598" gradientUnits="userSpaceOnUse">
<stop stop-color="#1DE8B7"/>
<stop offset="1" stop-color="#1DC5E7"/>
</linearGradient>
<linearGradient id="paint2_linear_2423_307" x1="12.7259" y1="14.002" x2="10.2024" y2="14.9493" gradientUnits="userSpaceOnUse">
<stop stop-color="#1DE8B7"/>
<stop offset="1" stop-color="#1DC5E7"/>
</linearGradient>
<linearGradient id="paint3_linear_2423_307" x1="17.1378" y1="9.18311" x2="12.9637" y2="9.87265" gradientUnits="userSpaceOnUse">
<stop stop-color="#1DE8B7"/>
<stop offset="1" stop-color="#1DC5E7"/>
</linearGradient>
<linearGradient id="paint4_linear_2423_307" x1="18.8785" y1="13.7524" x2="11.2005" y2="15.8839" gradientUnits="userSpaceOnUse">
<stop stop-color="#1DE8B7"/>
<stop offset="1" stop-color="#1DC5E7"/>
</linearGradient>
</defs>
</svg>
