<svg width="17" height="18" viewBox="0 0 17 18" fill="none" xmlns="http://www.w3.org/2000/svg">
<g id="Group">
<path id="Vector" d="M16.4231 15.8841L12.009 11.7319C12.9767 10.6141 13.5367 9.20115 13.5972 7.72395C13.7625 4.07212 10.915 0.96802 7.24965 0.802768C3.58354 0.637516 0.465997 3.47395 0.300731 7.12578C0.13469 10.7768 2.98222 13.8817 6.64833 14.0462C7.09904 14.0657 7.55056 14.0397 7.99606 13.9686L8.12951 13.9477C8.40354 13.8951 8.67407 13.8256 8.93955 13.7397C9.12429 13.6795 9.27764 13.5485 9.36605 13.3755C9.45446 13.2025 9.47073 13.0015 9.41129 12.8165C9.34955 12.6318 9.21753 12.4789 9.04383 12.3909C8.87013 12.3029 8.66875 12.2869 8.48332 12.3463C8.30486 12.4053 8.12253 12.4519 7.94019 12.4891C7.53681 12.5695 7.12526 12.6016 6.71428 12.5845C3.85899 12.4557 1.63993 10.0367 1.76872 7.19173C1.8983 4.34754 4.32685 2.1372 7.18292 2.26521C10.0382 2.39477 12.2573 4.81381 12.1277 7.65723C12.0985 8.33092 11.9367 8.99224 11.6515 9.60331C11.3663 10.2144 10.9634 10.7632 10.4657 11.2183L9.88614 11.7521L15.3228 16.878C15.3929 16.9463 15.4757 17.0002 15.5665 17.0365C15.6574 17.0728 15.7545 17.0909 15.8524 17.0897C15.9502 17.0885 16.0469 17.068 16.1368 17.0294C16.2268 16.9908 16.3082 16.9349 16.3765 16.8648C16.5034 16.7356 16.5782 16.5642 16.5868 16.3833C16.5954 16.2025 16.5371 16.0248 16.4231 15.8841Z" fill="black"/>
</g>
</svg>
