<svg width="15" height="13" viewBox="0 0 15 13" fill="none" xmlns="http://www.w3.org/2000/svg">
<g id="Frame" clip-path="url(#clip0_2423_70)">
<path id="Vector" fill-rule="evenodd" clip-rule="evenodd" d="M2.05032 8.65906C2.23137 8.65906 2.3943 8.71338 2.51198 8.822L5.95179 11.8273L9.3916 8.822C9.52071 8.72968 9.67657 8.68233 9.83522 8.68723C9.99386 8.69214 10.1465 8.74903 10.2697 8.84916C10.505 9.06641 10.5231 9.39229 10.3059 9.61859L6.41345 13.0222C6.2836 13.1296 6.12033 13.1884 5.95179 13.1884C5.78325 13.1884 5.61999 13.1296 5.49013 13.0222L1.59772 9.61859C1.51024 9.54542 1.44947 9.44533 1.4249 9.33396C1.40034 9.22259 1.41336 9.10623 1.46193 9.00304C1.51877 8.89902 1.60254 8.81219 1.70447 8.75167C1.8064 8.69115 1.92273 8.65916 2.04127 8.65906H2.05032ZM6.38629 1.5803L10.2787 4.9839C10.4598 5.14684 10.5231 5.38219 10.4145 5.59944C10.3569 5.70483 10.2717 5.79254 10.1681 5.85314C10.0644 5.91375 9.94618 5.94496 9.82611 5.94342C9.65771 5.94591 9.49398 5.88812 9.36445 5.78049L5.91558 2.77518L2.47577 5.78049C2.34667 5.87281 2.1908 5.92016 2.03216 5.91525C1.87351 5.91035 1.72087 5.85345 1.59772 5.75333C1.54121 5.70753 1.49502 5.6503 1.46218 5.5854C1.42935 5.5205 1.41061 5.44938 1.40719 5.37673C1.40377 5.30407 1.41575 5.23151 1.44234 5.16381C1.46894 5.09611 1.50955 5.0348 1.56151 4.9839L5.45392 1.5803C5.58378 1.47285 5.74704 1.41406 5.91558 1.41406C6.08413 1.41406 6.24739 1.47285 6.37724 1.5803H6.38629Z" fill="#3665F3" stroke="#3665F3" stroke-width="0.452607"/>
</g>
<defs>
<clipPath id="clip0_2423_70">
<rect width="14.4834" height="11.7678" fill="white" transform="translate(0.502319 0.511719)"/>
</clipPath>
</defs>
</svg>
